<svg xmlns="http://www.w3.org/2000/svg"><symbol id="rating" viewBox="0 0 511.99 511"><path fill="#FDC359" d="M510.652 185.902a27.158 27.158 0 0 0-23.425-18.71l-147.774-13.419-58.433-136.77C276.71 6.98 266.898.494 255.996.494s-20.715 6.487-25.023 16.534l-58.434 136.746-147.797 13.418a27.208 27.208 0 0 0-23.402 18.71c-3.371 10.368-.258 21.739 7.957 28.907l111.7 97.96-32.938 145.09c-2.41 10.668 1.73 21.696 10.582 28.094 4.757 3.438 10.324 5.188 15.937 5.188 4.84 0 9.64-1.305 13.95-3.883l127.468-76.184 127.422 76.184c9.324 5.61 21.078 5.097 29.91-1.305a27.223 27.223 0 0 0 10.582-28.094l-32.937-145.09 111.699-97.94a27.224 27.224 0 0 0 7.98-28.927zm0 0" data-original="#ffc107"/></symbol><symbol id="google" viewBox="0 0 512 512"><path fill="#167EE6" d="M492.668 211.489l-208.84-.01c-9.222 0-16.697 7.474-16.697 16.696v66.715c0 9.22 7.475 16.696 16.696 16.696h117.606c-12.878 33.421-36.914 61.41-67.58 79.194L384 477.589c80.442-46.523 128-128.152 128-219.53 0-13.011-.959-22.312-2.877-32.785-1.458-7.957-8.366-13.785-16.455-13.785z" data-original="#167ee6"/><path fill="#12B347" d="M256 411.826c-57.554 0-107.798-31.446-134.783-77.979l-86.806 50.034C78.586 460.443 161.34 512 256 512c46.437 0 90.254-12.503 128-34.292v-.119l-50.147-86.81c-22.938 13.304-49.482 21.047-77.853 21.047z" data-original="#12b347"/><path fill="#0F993E" d="M384 477.708v-.119l-50.147-86.81c-22.938 13.303-49.48 21.047-77.853 21.047V512c46.437 0 90.256-12.503 128-34.292z" data-original="#0f993e"/><path fill="#FFD500" d="M100.174 256c0-28.369 7.742-54.91 21.043-77.847l-86.806-50.034C12.502 165.746 0 209.444 0 256s12.502 90.254 34.411 127.881l86.806-50.034c-13.301-22.937-21.043-49.478-21.043-77.847z" data-original="#ffd500"/><path fill="#FF4B26" d="M256 100.174c37.531 0 72.005 13.336 98.932 35.519 6.643 5.472 16.298 5.077 22.383-1.008l47.27-47.27c6.904-6.904 6.412-18.205-.963-24.603C378.507 23.673 319.807 0 256 0 161.34 0 78.586 51.557 34.411 128.119l86.806 50.034c26.985-46.533 77.229-77.979 134.783-77.979z" data-original="#ff4b26"/><path fill="#D93F21" d="M354.932 135.693c6.643 5.472 16.299 5.077 22.383-1.008l47.27-47.27c6.903-6.904 6.411-18.205-.963-24.603C378.507 23.672 319.807 0 256 0v100.174c37.53 0 72.005 13.336 98.932 35.519z" data-original="#d93f21"/></symbol><symbol id="to-cart" viewBox="0 0 32 32"><g fill="#FFF" fill-rule="evenodd" clip-rule="evenodd"><path d="M16 2a5 5 0 0 0-5 5v1H8.79a3 3 0 0 0-2.982 2.669l-1.555 14A3 3 0 0 0 7.235 28H19a1 1 0 1 0 0-2H7.235a1 1 0 0 1-.994-1.11l1.555-14A1 1 0 0 1 8.79 10H11v2a1 1 0 1 0 2 0v-2h6v2a1 1 0 1 0 2 0v-2h2.21a1 1 0 0 1 .994.89l.802 7.22a1 1 0 0 0 1.988-.22l-.802-7.221A3 3 0 0 0 23.21 8H21V7a5 5 0 0 0-5-5zm3 6V7a3 3 0 1 0-6 0v1z" data-original="#000000"/><path d="M25 21a1 1 0 1 0-2 0v2h-2a1 1 0 1 0 0 2h2v2a1 1 0 1 0 2 0v-2h2a1 1 0 1 0 0-2h-2z" data-original="#000000"/></g></symbol><symbol id="added-to-cart" viewBox="0 0 32 32"><path d="M28 6h-5a1 1 0 0 0 0 2h5a1 1 0 0 1 .982 1.207l-2.1 8.04a1 1 0 0 1-.963.753H10.791L8.438 8H15a1 1 0 0 0 0-2H7.967l-.995-4.229A1 1 0 0 0 6 1H2a1 1 0 0 0 0 2h3.207l3.535 15.026A2.994 2.994 0 0 0 6 21a3.026 3.026 0 0 0 3 3h17a1 1 0 0 0 0-2H9a1.019 1.019 0 0 1-1-1 1 1 0 0 1 1-1h16.92a3 3 0 0 0 2.9-2.247l2.107-8.068A3.006 3.006 0 0 0 28 6zm-5 19a3 3 0 1 0 3 3 3 3 0 0 0-3-3zm0 4a1 1 0 1 1 1-1 1 1 0 0 1-1 1zm-11-4a3 3 0 1 0 3 3 3 3 0 0 0-3-3zm0 4a1 1 0 1 1 1-1 1 1 0 0 1-1 1z" data-original="#000000"/><path  d="M19 4a1 1 0 0 0-1 1v5.586l-.293-.293a1 1 0 0 0-1.414 1.414l2 2a1.014 1.014 0 0 0 1.416 0l2-2a1 1 0 0 0-1.414-1.414l-.295.293V5a1 1 0 0 0-1-1z" data-original="#000000"/></symbol><symbol id="check" viewBox="0 0 2.54 2.54"><circle cx="1.27" cy="1.27" r="1.27" fill="#454692" data-original="#00ba00"/><path fill="#FFF" d="M.873 1.89L.41 1.391a.17.17 0 0 1 .008-.24.17.17 0 0 1 .24.009l.358.383.567-.53A.17.17 0 0 1 1.599 1l.266-.249a.17.17 0 0 1 .24.008.17.17 0 0 1-.008.24l-.815.76-.283.263-.125-.134z" data-original="#ffffff"/></symbol><symbol id="my-cart" viewBox="0 0 24 24"><path d="M5 7.75a.25.25 0 0 0-.25.25v13c0 .138.112.25.25.25h14a.25.25 0 0 0 .25-.25V8a.25.25 0 0 0-.25-.25zM3.25 8c0-.967.783-1.75 1.75-1.75h14c.967 0 1.75.783 1.75 1.75v13A1.75 1.75 0 0 1 19 22.75H5A1.75 1.75 0 0 1 3.25 21z" data-original="#000000"/><path d="M12 2.75A2.75 2.75 0 0 0 9.25 5.5V9a.75.75 0 0 1-1.5 0V5.5a4.25 4.25 0 0 1 8.5 0V9a.75.75 0 0 1-1.5 0V5.5A2.75 2.75 0 0 0 12 2.75z" data-original="#000000"/></symbol><symbol id="arrow-down" viewBox="0 0 451.85 451.85"><path d="M225.923 354.706c-8.098 0-16.195-3.092-22.369-9.263L9.27 151.157c-12.359-12.359-12.359-32.397 0-44.751 12.354-12.354 32.388-12.354 44.748 0l171.905 171.915 171.906-171.909c12.359-12.354 32.391-12.354 44.744 0 12.365 12.354 12.365 32.392 0 44.751L248.292 345.449c-6.177 6.172-14.274 9.257-22.369 9.257z" data-original="#000000"/></symbol><symbol id="categories" viewBox="0 0 64 64"><path d="M55.3 62H41.7C38 62 35 59 35 55.3V37c0-1.1.9-2 2-2h18.3c3.7 0 6.7 3 6.7 6.7v13.6c0 3.7-3 6.7-6.7 6.7zM39 39v16.3c0 1.5 1.2 2.7 2.7 2.7h13.6c1.5 0 2.7-1.2 2.7-2.7V41.7c0-1.5-1.2-2.7-2.7-2.7zM22.3 62H8.7C5 62 2 59 2 55.3V41.7C2 38 5 35 8.7 35H27c1.1 0 2 .9 2 2v18.3c0 3.7-3 6.7-6.7 6.7zM8.7 39C7.2 39 6 40.2 6 41.7v13.6C6 56.8 7.2 58 8.7 58h13.6c1.5 0 2.7-1.2 2.7-2.7V39zm46.6-10H37c-1.1 0-2-.9-2-2V8.7C35 5 38 2 41.7 2h13.6C59 2 62 5 62 8.7v13.6c0 3.7-3 6.7-6.7 6.7zM39 25h16.3c1.5 0 2.7-1.2 2.7-2.7V8.7C58 7.2 56.8 6 55.3 6H41.7C40.2 6 39 7.2 39 8.7zm-12 4H8.7C5 29 2 26 2 22.3V8.7C2 5 5 2 8.7 2h13.6C26 2 29 5 29 8.7V27c0 1.1-.9 2-2 2zM8.7 6C7.2 6 6 7.2 6 8.7v13.6C6 23.8 7.2 25 8.7 25H25V8.7C25 7.2 23.8 6 22.3 6z" data-original="#000000"/></symbol><symbol id="home" viewBox="0 0 511 512"><path d="M498.7 222.695c-.016-.011-.028-.027-.04-.039L289.805 13.81C280.902 4.902 269.066 0 256.477 0c-12.59 0-24.426 4.902-33.332 13.809L14.398 222.55c-.07.07-.144.144-.21.215-18.282 18.386-18.25 48.218.09 66.558 8.378 8.383 19.44 13.235 31.273 13.746.484.047.969.07 1.457.07h8.32v153.696c0 30.418 24.75 55.164 55.168 55.164h81.711c8.285 0 15-6.719 15-15V376.5c0-13.879 11.293-25.168 25.172-25.168h48.195c13.88 0 25.168 11.29 25.168 25.168V497c0 8.281 6.715 15 15 15h81.711c30.422 0 55.168-24.746 55.168-55.164V303.14h7.719c12.586 0 24.422-4.903 33.332-13.813 18.36-18.367 18.367-48.254.027-66.633zm-21.243 45.422a17.03 17.03 0 0 1-12.117 5.024h-22.72c-8.285 0-15 6.714-15 15v168.695c0 13.875-11.289 25.164-25.168 25.164h-66.71V376.5c0-30.418-24.747-55.168-55.169-55.168H232.38c-30.422 0-55.172 24.75-55.172 55.168V482h-66.71c-13.876 0-25.169-11.29-25.169-25.164V288.14c0-8.286-6.715-15-15-15H48a13.9 13.9 0 0 0-.703-.032c-4.469-.078-8.66-1.851-11.8-4.996-6.68-6.68-6.68-17.55 0-24.234.003 0 .003-.004.007-.008l.012-.012L244.363 35.02A17.003 17.003 0 0 1 256.477 30c4.574 0 8.875 1.781 12.113 5.02l208.8 208.796.098.094c6.645 6.692 6.633 17.54-.031 24.207zm0 0" data-original="#000000"/></symbol><symbol id="arrow-down" viewBox="0 0 451.85 451.85"><path d="M225.923 354.706c-8.098 0-16.195-3.092-22.369-9.263L9.27 151.157c-12.359-12.359-12.359-32.397 0-44.751 12.354-12.354 32.388-12.354 44.748 0l171.905 171.915 171.906-171.909c12.359-12.354 32.391-12.354 44.744 0 12.365 12.354 12.365 32.392 0 44.751L248.292 345.449c-6.177 6.172-14.274 9.257-22.369 9.257z" data-original="#000000"/></symbol><symbol id="logout" viewBox="0 0 471.2 471.2"><path d="M227.619 444.2h-122.9c-33.4 0-60.5-27.2-60.5-60.5V87.5c0-33.4 27.2-60.5 60.5-60.5h124.9c7.5 0 13.5-6 13.5-13.5s-6-13.5-13.5-13.5h-124.9c-48.3 0-87.5 39.3-87.5 87.5v296.2c0 48.3 39.3 87.5 87.5 87.5h122.9c7.5 0 13.5-6 13.5-13.5s-6.1-13.5-13.5-13.5z" data-original="#000000"/><path d="M450.019 226.1l-85.8-85.8c-5.3-5.3-13.8-5.3-19.1 0-5.3 5.3-5.3 13.8 0 19.1l62.8 62.8h-273.9c-7.5 0-13.5 6-13.5 13.5s6 13.5 13.5 13.5h273.9l-62.8 62.8c-5.3 5.3-5.3 13.8 0 19.1 2.6 2.6 6.1 4 9.5 4s6.9-1.3 9.5-4l85.8-85.8c5.4-5.4 5.4-14 .1-19.2z" data-original="#000000"/></symbol><symbol id="profile" viewBox="0 0 512 512"><path d="M210.352 246.633c33.882 0 63.218-12.153 87.195-36.13 23.969-23.972 36.125-53.304 36.125-87.19 0-33.876-12.152-63.211-36.129-87.192C273.566 12.152 244.23 0 210.352 0c-33.887 0-63.22 12.152-87.192 36.125s-36.129 53.309-36.129 87.188c0 33.886 12.156 63.222 36.13 87.195 23.98 23.969 53.316 36.125 87.19 36.125zM144.379 57.34c18.394-18.395 39.973-27.336 65.973-27.336 25.996 0 47.578 8.941 65.976 27.336 18.395 18.398 27.34 39.98 27.34 65.972 0 26-8.945 47.579-27.34 65.977-18.398 18.399-39.98 27.34-65.976 27.34-25.993 0-47.57-8.945-65.973-27.34-18.399-18.394-27.344-39.976-27.344-65.976 0-25.993 8.945-47.575 27.344-65.973zm281.75 336.363c-.692-9.976-2.09-20.86-4.149-32.351-2.078-11.579-4.753-22.524-7.957-32.528-3.312-10.34-7.808-20.55-13.375-30.336-5.77-10.156-12.55-19-20.16-26.277-7.957-7.613-17.699-13.734-28.965-18.2-11.226-4.44-23.668-6.69-36.976-6.69-5.227 0-10.281 2.144-20.043 8.5a2711.03 2711.03 0 0 1-20.879 13.46c-6.707 4.274-15.793 8.278-27.016 11.903-10.949 3.543-22.066 5.34-33.043 5.34-10.968 0-22.086-1.797-33.043-5.34-11.21-3.622-20.3-7.625-26.996-11.899a2853.13 2853.13 0 0 1-20.898-13.469c-9.754-6.355-14.809-8.5-20.035-8.5-13.313 0-25.75 2.254-36.973 6.7-11.258 4.457-21.004 10.578-28.969 18.199-7.609 7.281-14.39 16.12-20.156 26.273-5.558 9.785-10.058 19.992-13.371 30.34-3.2 10.004-5.875 20.945-7.953 32.524-2.063 11.476-3.457 22.363-4.149 32.363C.343 403.492 0 413.668 0 423.949c0 26.727 8.496 48.363 25.25 64.32C41.797 504.017 63.688 512 90.316 512h246.532c26.62 0 48.511-7.984 65.062-23.73 16.758-15.946 25.254-37.59 25.254-64.325-.004-10.316-.351-20.492-1.035-30.242zm-44.906 72.828c-10.934 10.406-25.45 15.465-44.38 15.465H90.317c-18.933 0-33.449-5.059-44.379-15.46-10.722-10.208-15.933-24.141-15.933-42.587 0-9.594.316-19.066.95-28.16.616-8.922 1.878-18.723 3.75-29.137 1.847-10.285 4.198-19.937 6.995-28.675 2.684-8.38 6.344-16.676 10.883-24.668 4.332-7.618 9.316-14.153 14.816-19.418 5.145-4.926 11.63-8.957 19.27-11.98 7.066-2.798 15.008-4.329 23.629-4.56 1.05.56 2.922 1.626 5.953 3.602 6.168 4.02 13.277 8.606 21.137 13.625 8.86 5.649 20.273 10.75 33.91 15.152 13.941 4.508 28.16 6.797 42.273 6.797 14.114 0 28.336-2.289 42.27-6.793 13.648-4.41 25.058-9.507 33.93-15.164 8.043-5.14 14.953-9.593 21.12-13.617 3.032-1.973 4.903-3.043 5.954-3.601 8.625.23 16.566 1.761 23.636 4.558 7.637 3.024 14.122 7.059 19.266 11.98 5.5 5.262 10.484 11.798 14.816 19.423 4.543 7.988 8.208 16.289 10.887 24.66 2.801 8.75 5.156 18.398 7 28.675 1.867 10.434 3.133 20.239 3.75 29.145v.008c.637 9.058.957 18.527.961 28.148-.004 18.45-5.215 32.38-15.937 42.582zm0 0" data-original="#000000"/></symbol><symbol id="search" viewBox="0 0 612.01 612.01"><path d="M606.209 578.714L448.198 423.228C489.576 378.272 515 318.817 515 253.393 514.98 113.439 399.704 0 257.493 0S.006 113.439.006 253.393s115.276 253.393 257.487 253.393c61.445 0 117.801-21.253 162.068-56.586l158.624 156.099c7.729 7.614 20.277 7.614 28.006 0a19.291 19.291 0 0 0 .018-27.585zM257.493 467.8c-120.326 0-217.869-95.993-217.869-214.407S137.167 38.986 257.493 38.986c120.327 0 217.869 95.993 217.869 214.407S377.82 467.8 257.493 467.8z" data-original="#000000"/></symbol><symbol id="un-password" viewBox="0 0 128 128"><path d="M79.891 65.078l7.27-7.27C87.69 59.787 88 61.856 88 64c0 13.234-10.766 24-24 24-2.144 0-4.213-.31-6.192-.839l7.27-7.27a15.929 15.929 0 0 0 14.813-14.813zm47.605-3.021c-.492-.885-7.47-13.112-21.11-23.474l-5.821 5.821c9.946 7.313 16.248 15.842 18.729 19.602C114.553 71.225 95.955 96 64 96c-4.792 0-9.248-.613-13.441-1.591l-6.573 6.573C50.029 102.835 56.671 104 64 104c41.873 0 62.633-36.504 63.496-38.057a3.997 3.997 0 0 0 0-3.886zm-16.668-39.229l-88 88C22.047 111.609 21.023 112 20 112s-2.047-.391-2.828-1.172a3.997 3.997 0 0 1 0-5.656l11.196-11.196C10.268 83.049 1.071 66.964.504 65.943a4 4 0 0 1 0-3.887C1.367 60.504 22.127 24 64 24c10.827 0 20.205 2.47 28.222 6.122l12.95-12.95c1.563-1.563 4.094-1.563 5.656 0s1.563 4.094 0 5.656zM34.333 88.011L44.46 77.884C41.663 73.96 40 69.175 40 64c0-13.234 10.766-24 24-24 5.175 0 9.96 1.663 13.884 4.459l8.189-8.189C79.603 33.679 72.251 32 64 32 32.045 32 13.447 56.775 8.707 63.994c3.01 4.562 11.662 16.11 25.626 24.017zm15.934-15.935l21.809-21.809C69.697 48.862 66.958 48 64 48c-8.822 0-16 7.178-16 16 0 2.958.862 5.697 2.267 8.076z" data-original="#000000"/></symbol><symbol id="visible-password" viewBox="0 0 512 512"><path fill-rule="evenodd" d="M153.349 255.994c0-56.578 46.02-102.617 102.659-102.617 56.579 0 102.598 46.038 102.598 102.617 0 56.591-46.019 102.61-102.598 102.61-56.64 0-102.659-46.019-102.659-102.61zm-124.815-9.79c-3.54 6.403-3.54 13.177 0 19.586 45.959 82.53 133.115 133.799 227.474 133.799 94.297 0 181.454-51.268 227.413-133.799 3.601-6.409 3.601-13.183 0-19.586-45.959-82.53-133.115-133.793-227.413-133.793-94.359 0-181.515 51.263-227.474 133.793zm227.474-59.197c-38.085 0-69.03 30.944-69.03 68.987 0 38.042 30.944 68.987 69.03 68.987 38.024 0 68.968-30.944 68.968-68.987s-30.944-68.987-68.968-68.987z" clip-rule="evenodd" data-original="#000000"/></symbol><symbol id="del" viewBox="0 0 427 427"><path d="M232.398 154.703c-5.523 0-10 4.477-10 10v189c0 5.52 4.477 10 10 10 5.524 0 10-4.48 10-10v-189c0-5.523-4.476-10-10-10zm-118 0c-5.523 0-10 4.477-10 10v189c0 5.52 4.477 10 10 10 5.524 0 10-4.48 10-10v-189c0-5.523-4.476-10-10-10zm0 0" data-original="#000000"/><path d="M28.398 127.121V373.5c0 14.563 5.34 28.238 14.668 38.05A49.246 49.246 0 0 0 78.796 427H268a49.233 49.233 0 0 0 35.73-15.45c9.329-9.812 14.668-23.487 14.668-38.05V127.121c18.543-4.922 30.559-22.836 28.079-41.863-2.485-19.024-18.692-33.254-37.88-33.258h-51.199V39.5a39.289 39.289 0 0 0-11.539-28.031A39.288 39.288 0 0 0 217.797 0H129a39.288 39.288 0 0 0-28.063 11.469A39.289 39.289 0 0 0 89.398 39.5V52H38.2C19.012 52.004 2.805 66.234.32 85.258c-2.48 19.027 9.535 36.941 28.078 41.863zM268 407H78.797c-17.098 0-30.399-14.688-30.399-33.5V128h250v245.5c0 18.813-13.3 33.5-30.398 33.5zM109.398 39.5a19.25 19.25 0 0 1 5.676-13.895A19.26 19.26 0 0 1 129 20h88.797a19.26 19.26 0 0 1 13.926 5.605 19.244 19.244 0 0 1 5.675 13.895V52h-128zM38.2 72h270.399c9.941 0 18 8.059 18 18s-8.059 18-18 18h-270.4c-9.941 0-18-8.059-18-18s8.059-18 18-18zm0 0" data-original="#000000"/><path d="M173.398 154.703c-5.523 0-10 4.477-10 10v189c0 5.52 4.477 10 10 10 5.524 0 10-4.48 10-10v-189c0-5.523-4.476-10-10-10zm0 0" data-original="#000000"/></symbol><symbol id="cart" viewBox="0 0 24 24"><path d="M1 1a1 1 0 1 0 0 2h1.78a.694.694 35.784 0 1 .657.474l3.297 9.893c.147.44.165.912.053 1.362l-.271 1.087C6.117 17.41 7.358 19 9 19h12a1 1 0 1 0 0-2H9c-.39 0-.64-.32-.545-.697l.205-.818A.64.64 142.028 0 1 9.28 15H20a1 1 0 0 0 .95-.684l2.665-8A1 1 0 0 0 22.666 5H6.555a.694.694 35.783 0 1-.658-.474l-.948-2.842A1 1 0 0 0 4 1zm7 19a2 2 0 1 0 0 4 2 2 0 0 0 0-4zm12 0a2 2 0 1 0 0 4 2 2 0 0 0 0-4z" data-original="#000000" paint-order="fill markers stroke"/></symbol></svg>