<svg xmlns="http://www.w3.org/2000/svg"><symbol id="un-password" viewBox="0 0 128 128"><path d="M79.891 65.078l7.27-7.27C87.69 59.787 88 61.856 88 64c0 13.234-10.766 24-24 24-2.144 0-4.213-.31-6.192-.839l7.27-7.27a15.929 15.929 0 0 0 14.813-14.813zm47.605-3.021c-.492-.885-7.47-13.112-21.11-23.474l-5.821 5.821c9.946 7.313 16.248 15.842 18.729 19.602C114.553 71.225 95.955 96 64 96c-4.792 0-9.248-.613-13.441-1.591l-6.573 6.573C50.029 102.835 56.671 104 64 104c41.873 0 62.633-36.504 63.496-38.057a3.997 3.997 0 0 0 0-3.886zm-16.668-39.229l-88 88C22.047 111.609 21.023 112 20 112s-2.047-.391-2.828-1.172a3.997 3.997 0 0 1 0-5.656l11.196-11.196C10.268 83.049 1.071 66.964.504 65.943a4 4 0 0 1 0-3.887C1.367 60.504 22.127 24 64 24c10.827 0 20.205 2.47 28.222 6.122l12.95-12.95c1.563-1.563 4.094-1.563 5.656 0s1.563 4.094 0 5.656zM34.333 88.011L44.46 77.884C41.663 73.96 40 69.175 40 64c0-13.234 10.766-24 24-24 5.175 0 9.96 1.663 13.884 4.459l8.189-8.189C79.603 33.679 72.251 32 64 32 32.045 32 13.447 56.775 8.707 63.994c3.01 4.562 11.662 16.11 25.626 24.017zm15.934-15.935l21.809-21.809C69.697 48.862 66.958 48 64 48c-8.822 0-16 7.178-16 16 0 2.958.862 5.697 2.267 8.076z" data-original="#000000"/></symbol><symbol id="visible-password" viewBox="0 0 512 512"><path fill-rule="evenodd" d="M153.349 255.994c0-56.578 46.02-102.617 102.659-102.617 56.579 0 102.598 46.038 102.598 102.617 0 56.591-46.019 102.61-102.598 102.61-56.64 0-102.659-46.019-102.659-102.61zm-124.815-9.79c-3.54 6.403-3.54 13.177 0 19.586 45.959 82.53 133.115 133.799 227.474 133.799 94.297 0 181.454-51.268 227.413-133.799 3.601-6.409 3.601-13.183 0-19.586-45.959-82.53-133.115-133.793-227.413-133.793-94.359 0-181.515 51.263-227.474 133.793zm227.474-59.197c-38.085 0-69.03 30.944-69.03 68.987 0 38.042 30.944 68.987 69.03 68.987 38.024 0 68.968-30.944 68.968-68.987s-30.944-68.987-68.968-68.987z" clip-rule="evenodd" data-original="#000000"/></symbol><symbol id="del" viewBox="0 0 427 427"><path d="M232.398 154.703c-5.523 0-10 4.477-10 10v189c0 5.52 4.477 10 10 10 5.524 0 10-4.48 10-10v-189c0-5.523-4.476-10-10-10zm-118 0c-5.523 0-10 4.477-10 10v189c0 5.52 4.477 10 10 10 5.524 0 10-4.48 10-10v-189c0-5.523-4.476-10-10-10zm0 0" data-original="#000000"/><path d="M28.398 127.121V373.5c0 14.563 5.34 28.238 14.668 38.05A49.246 49.246 0 0 0 78.796 427H268a49.233 49.233 0 0 0 35.73-15.45c9.329-9.812 14.668-23.487 14.668-38.05V127.121c18.543-4.922 30.559-22.836 28.079-41.863-2.485-19.024-18.692-33.254-37.88-33.258h-51.199V39.5a39.289 39.289 0 0 0-11.539-28.031A39.288 39.288 0 0 0 217.797 0H129a39.288 39.288 0 0 0-28.063 11.469A39.289 39.289 0 0 0 89.398 39.5V52H38.2C19.012 52.004 2.805 66.234.32 85.258c-2.48 19.027 9.535 36.941 28.078 41.863zM268 407H78.797c-17.098 0-30.399-14.688-30.399-33.5V128h250v245.5c0 18.813-13.3 33.5-30.398 33.5zM109.398 39.5a19.25 19.25 0 0 1 5.676-13.895A19.26 19.26 0 0 1 129 20h88.797a19.26 19.26 0 0 1 13.926 5.605 19.244 19.244 0 0 1 5.675 13.895V52h-128zM38.2 72h270.399c9.941 0 18 8.059 18 18s-8.059 18-18 18h-270.4c-9.941 0-18-8.059-18-18s8.059-18 18-18zm0 0" data-original="#000000"/><path d="M173.398 154.703c-5.523 0-10 4.477-10 10v189c0 5.52 4.477 10 10 10 5.524 0 10-4.48 10-10v-189c0-5.523-4.476-10-10-10zm0 0" data-original="#000000"/></symbol><symbol id="cart" viewBox="0 0 24 24"><path d="M1 1a1 1 0 1 0 0 2h1.78a.694.694 35.784 0 1 .657.474l3.297 9.893c.147.44.165.912.053 1.362l-.271 1.087C6.117 17.41 7.358 19 9 19h12a1 1 0 1 0 0-2H9c-.39 0-.64-.32-.545-.697l.205-.818A.64.64 142.028 0 1 9.28 15H20a1 1 0 0 0 .95-.684l2.665-8A1 1 0 0 0 22.666 5H6.555a.694.694 35.783 0 1-.658-.474l-.948-2.842A1 1 0 0 0 4 1zm7 19a2 2 0 1 0 0 4 2 2 0 0 0 0-4zm12 0a2 2 0 1 0 0 4 2 2 0 0 0 0-4z" data-original="#000000" paint-order="fill markers stroke"/></symbol></svg>