<?xml version="1.0" standalone="no"?>
<!DOCTYPE svg PUBLIC "-//W3C//DTD SVG 20010904//EN"
 "http://www.w3.org/TR/2001/REC-SVG-20010904/DTD/svg10.dtd">
<svg version="1.0" xmlns="http://www.w3.org/2000/svg"
 width="411.000000pt" height="104.000000pt" viewBox="0 0 411.000000 104.000000"
 preserveAspectRatio="xMidYMid meet">
<metadata>
Created by potrace 1.16, written by Peter Selinger 2001-2019
</metadata>
<g transform="translate(0.000000,104.000000) scale(0.100000,-0.100000)"
fill="#000000" stroke="none">
<path d="M405 859 c-201 -69 -311 -284 -244 -481 27 -81 68 -139 134 -189 98
-74 240 -98 350 -60 47 17 52 17 110 -1 176 -56 374 30 457 200 31 62 33 74
33 167 0 88 -3 107 -27 158 -38 81 -129 168 -205 197 -82 32 -182 37 -258 13
-58 -18 -62 -18 -115 -2 -74 24 -162 23 -235 -2z m264 -104 c29 -16 64 -43 78
-60 39 -45 75 -130 71 -167 -3 -31 -4 -32 -55 -32 -28 -1 -54 -4 -57 -7 -6 -6
148 -159 161 -159 9 0 163 152 163 161 0 3 -25 6 -57 5 l-56 -1 -13 63 c-16
76 -46 142 -87 188 -36 42 -25 49 71 42 82 -6 133 -29 188 -84 86 -85 112
-221 64 -328 -26 -58 -89 -124 -145 -151 -59 -29 -204 -28 -261 2 -81 43 -149
135 -160 216 l-7 47 62 0 c33 0 61 3 61 7 0 11 -153 163 -164 163 -5 0 -46
-37 -90 -82 l-81 -83 63 -3 c34 -2 62 -4 62 -6 0 -1 5 -29 11 -61 12 -67 38
-124 80 -174 15 -19 25 -39 22 -44 -3 -5 -40 -7 -83 -5 -61 4 -87 10 -126 33
-132 76 -187 226 -134 367 28 76 98 145 177 174 63 24 178 13 242 -21z"/>
<path d="M1530 500 l0 -300 60 0 60 0 0 108 0 108 33 32 32 31 95 -139 95
-139 73 -1 73 0 -42 63 c-24 34 -78 112 -121 174 -43 62 -78 116 -78 121 0 5
49 60 109 123 l110 114 -72 3 -72 3 -113 -115 c-63 -64 -116 -116 -118 -116
-2 0 -4 52 -4 115 l0 115 -60 0 -60 0 0 -300z"/>
<path d="M3015 645 c-5 -2 -22 -6 -36 -9 -14 -3 -38 -18 -52 -32 l-27 -27 0
27 c0 25 -2 26 -55 26 l-55 0 0 -215 0 -215 55 0 55 0 0 129 c0 176 15 211 89
211 53 0 61 -25 61 -192 l0 -148 55 0 55 0 0 123 c0 180 15 217 89 217 53 0
61 -25 61 -192 l0 -148 61 0 61 0 -4 173 c-5 218 -17 245 -116 268 -42 9 -93
-5 -132 -37 l-30 -26 -35 31 c-20 17 -42 31 -50 31 -7 0 -19 2 -27 4 -7 3 -17
3 -23 1z"/>
<path d="M2155 626 c-42 -20 -74 -56 -81 -94 l-6 -32 51 0 c28 0 51 5 51 10 0
24 41 50 80 50 38 0 80 -26 80 -49 0 -20 -31 -39 -72 -46 -101 -15 -140 -28
-173 -60 -30 -28 -35 -39 -35 -79 0 -26 7 -60 15 -75 33 -65 173 -87 233 -36
29 24 30 24 35 5 4 -17 14 -20 59 -20 l53 0 -3 162 c-3 179 -12 214 -65 252
-36 26 -175 33 -222 12z m175 -251 c0 -69 -35 -105 -101 -105 -46 0 -69 17
-69 49 0 16 7 34 15 41 13 11 121 47 148 49 4 1 7 -15 7 -34z"/>
<path d="M2676 625 c-16 -9 -35 -23 -42 -33 -12 -15 -13 -14 -14 11 0 26 -1
27 -60 27 l-60 0 0 -215 0 -215 60 0 60 0 0 126 c0 73 5 134 11 147 18 35 51
57 87 57 l32 0 0 55 c0 50 -2 55 -22 55 -13 0 -36 -7 -52 -15z"/>
<path d="M3575 625 c-41 -18 -73 -55 -81 -93 l-6 -32 51 0 c28 0 51 5 51 10 0
24 41 50 80 50 38 0 80 -26 80 -49 0 -20 -31 -39 -72 -46 -101 -15 -140 -28
-173 -60 -30 -28 -35 -39 -35 -78 0 -104 55 -144 187 -138 17 0 45 12 61 26
29 24 30 24 35 5 4 -17 14 -20 59 -20 l53 0 -5 174 c-6 195 -12 213 -81 248
-41 22 -159 23 -204 3z m175 -250 c0 -69 -35 -105 -101 -105 -46 0 -69 17 -69
49 0 16 7 34 15 41 13 11 121 47 148 49 4 1 7 -15 7 -34z"/>
</g>
</svg>
