<svg xmlns="http://www.w3.org/2000/svg" version="1.1" xmlns:xlink="http://www.w3.org/1999/xlink" width="512" height="512" x="0" y="0" viewBox="0 0 256 256" style="enable-background:new 0 0 512 512" xml:space="preserve"><g><circle cx="148.609" cy="213.517" r="21.941" fill="#4671C6" opacity="1" data-original="#4671c6"></circle><path fill="#F9CFCF" d="M148.609 225.884c-6.819 0-12.367-5.548-12.367-12.367s5.548-12.367 12.367-12.367c6.818 0 12.366 5.548 12.366 12.367s-5.547 12.367-12.366 12.367z" opacity="1" data-original="#f9cfcf"></path><path fill="#3762CC" d="M148.609 237.458c-13.201 0-23.941-10.74-23.941-23.941s10.74-23.941 23.941-23.941 23.94 10.74 23.94 23.941-10.739 23.941-23.94 23.941zm0-43.882c-10.996 0-19.941 8.945-19.941 19.941s8.945 19.941 19.941 19.941c10.995 0 19.94-8.945 19.94-19.941s-8.945-19.941-19.94-19.941z" opacity="1" data-original="#3762cc"></path><circle cx="56.136" cy="213.517" r="21.941" fill="#4671C6" opacity="1" data-original="#4671c6"></circle><path fill="#F9CFCF" d="M56.136 225.884c-6.819 0-12.367-5.548-12.367-12.367s5.548-12.367 12.367-12.367c6.818 0 12.366 5.548 12.366 12.367s-5.547 12.367-12.366 12.367z" opacity="1" data-original="#f9cfcf"></path><path fill="#3762CC" d="M56.136 237.458c-13.201 0-23.94-10.74-23.94-23.941s10.74-23.941 23.94-23.941c13.201 0 23.941 10.74 23.941 23.941s-10.74 23.941-23.941 23.941zm0-43.882c-10.995 0-19.94 8.945-19.94 19.941s8.945 19.941 19.94 19.941c10.996 0 19.941-8.945 19.941-19.941s-8.946-19.941-19.941-19.941z" opacity="1" data-original="#3762cc"></path><path fill="#A4C9FF" d="M62.587 191.576v16.435a5.376 5.376 0 0 1-5.376 5.376h-1.544a5.377 5.377 0 0 1-5.082-3.622l-6.277-18.188h18.279zM155.06 191.576v16.435a5.376 5.376 0 0 1-5.376 5.376h-1.544a5.377 5.377 0 0 1-5.082-3.622l-6.277-18.188h18.279z" opacity="1" data-original="#a4c9ff"></path><path fill="#3762CC" d="M57.211 215.387h-1.544a7.38 7.38 0 0 1-6.973-4.97l-6.276-18.189a2 2 0 0 1 1.89-2.652h18.279a2 2 0 0 1 2 2v16.435c0 4.067-3.309 7.376-7.376 7.376zm-10.097-21.811 5.361 15.536a3.38 3.38 0 0 0 3.192 2.275h1.544a3.38 3.38 0 0 0 3.376-3.376v-14.435zM149.684 215.387h-1.544a7.38 7.38 0 0 1-6.973-4.97l-6.277-18.188a2 2 0 0 1 1.89-2.652h18.28a2 2 0 0 1 2 2v16.435c.001 4.066-3.309 7.375-7.376 7.375zm-10.097-21.811 5.361 15.536a3.377 3.377 0 0 0 3.191 2.275h1.544a3.38 3.38 0 0 0 3.376-3.376v-14.435z" opacity="1" data-original="#3762cc"></path><path fill="#F9A7A7" d="M241.285 41.758h-39.316a4.715 4.715 0 0 1-4.715-4.715V25.257a4.715 4.715 0 0 1 4.715-4.715h39.316A4.715 4.715 0 0 1 246 25.257v11.787a4.715 4.715 0 0 1-4.715 4.714z" opacity="1" data-original="#f9a7a7"></path><path fill="#3762CC" d="M241.285 43.758h-39.316a6.722 6.722 0 0 1-6.715-6.715V25.257a6.722 6.722 0 0 1 6.715-6.715h39.316A6.722 6.722 0 0 1 248 25.257v11.787a6.722 6.722 0 0 1-6.715 6.714zm-39.316-21.216a2.718 2.718 0 0 0-2.715 2.715v11.787a2.718 2.718 0 0 0 2.715 2.715h39.316A2.718 2.718 0 0 0 244 37.044V25.257a2.718 2.718 0 0 0-2.715-2.715z" opacity="1" data-original="#3762cc"></path><path fill="#A4C9FF" d="M183.227 41.56c.356-2.575 2.422-4.517 4.804-4.517h9.223V25.257h-9.223c-8.238 0-15.323 6.315-16.481 14.689l-1.375 9.946h4.955a5.892 5.892 0 0 1 5.84 6.68z" opacity="1" data-original="#a4c9ff"></path><path fill="#3762CC" d="M180.975 58.573a2 2 0 0 1-1.984-2.268 3.895 3.895 0 0 0-3.858-4.414h-4.956a2 2 0 0 1-1.981-2.274l1.375-9.946c1.293-9.358 9.23-16.416 18.461-16.416h9.223a2 2 0 0 1 2 2v11.787a2 2 0 0 1-2 2h-9.223c-1.39 0-2.604 1.2-2.823 2.79a1.385 1.385 0 0 1-.003.023l-2.255 15.012a2.002 2.002 0 0 1-1.976 1.706zm-8.503-10.68h2.66c1.779 0 3.491.601 4.869 1.681l1.247-8.299c.497-3.553 3.411-6.231 6.784-6.231h7.223v-7.787h-7.223c-7.244 0-13.478 5.573-14.5 12.963zm10.756-6.333h.01z" opacity="1" data-original="#3762cc"></path><path fill="#A4C9FF" d="M179.568 51.907a5.892 5.892 0 0 0-4.436-2.014H20.195a10.193 10.193 0 0 0-10.104 11.555l11.96 88.826c.963 7.161 7.14 12.562 14.366 12.562H153.99c7.226 0 13.401-5.4 14.365-12.561l12.617-93.701a5.89 5.89 0 0 0-1.404-4.667zM22.015 61.679h22.782l3.394 38.791H27.238zm14.403 89.369a2.718 2.718 0 0 1-2.685-2.347l-4.907-36.444h20.397l3.394 38.791zm53.202 0H64.449l-3.394-38.791H89.62zm0-50.578H60.024L56.63 61.679h32.99zm36.957 50.578h-25.171v-38.791h28.564zm4.425-50.578h-29.595V61.679h32.989zm25.673 48.231a2.718 2.718 0 0 1-2.684 2.347H138.41l3.393-38.791h19.779zm6.494-48.231h-20.335l3.394-38.791h22.164z" opacity="1" data-original="#a4c9ff"></path><path fill="#A4C9FF" d="M161.332 162.835c4.36 0 7.906 3.803 7.906 8.477s-3.546 8.478-7.906 8.478H28.896a5.893 5.893 0 1 0 0 11.786h132.437c10.859 0 19.693-9.09 19.693-20.264 0-8.788-5.475-16.267-13.092-19.068-1.73 6.155-7.398 10.59-13.942 10.59z" opacity="1" data-original="#a4c9ff"></path><path fill="#3762CC" d="M153.991 164.834H36.417c-8.224 0-15.251-6.146-16.348-14.295L8.109 61.714a12.195 12.195 0 0 1 12.085-13.822h154.938c2.277 0 4.442.983 5.941 2.698a7.889 7.889 0 0 1 1.881 6.249l-12.617 93.702c-1.095 8.148-8.123 14.293-16.346 14.293zM20.195 51.893a8.194 8.194 0 0 0-8.121 9.288l11.96 88.825c.831 6.173 6.154 10.829 12.384 10.829h117.574c6.229 0 11.552-4.655 12.383-10.828l12.617-93.702a3.892 3.892 0 0 0-.927-3.081v-.001a3.894 3.894 0 0 0-2.931-1.331H20.195zm133.796 101.155H138.41a1.999 1.999 0 0 1-1.993-2.174l3.394-38.791a2 2 0 0 1 1.992-1.826h19.779a1.998 1.998 0 0 1 1.982 2.267l-4.907 36.444a4.725 4.725 0 0 1-4.666 4.08zm-13.399-4h13.399a.72.72 0 0 0 .702-.614l4.602-34.177h-15.659zm16.083-.347h.01zm-30.098 4.347h-25.17a2 2 0 0 1-2-2v-38.791a2 2 0 0 1 2-2h28.564a1.999 1.999 0 0 1 1.993 2.174l-3.394 38.791a2.001 2.001 0 0 1-1.993 1.826zm-23.171-4h21.338l3.043-34.791h-24.381zm-13.786 4H64.449a1.999 1.999 0 0 1-1.992-1.826l-3.394-38.791a1.997 1.997 0 0 1 1.993-2.174H89.62a2 2 0 0 1 2 2v38.791a2 2 0 0 1-2 2zm-23.339-4H87.62v-34.791H63.237zm-13.665 4H36.417a4.726 4.726 0 0 1-4.667-4.08l-4.907-36.444a1.998 1.998 0 0 1 1.982-2.267h20.397c1.037 0 1.902.792 1.992 1.826l3.394 38.791a1.997 1.997 0 0 1-1.992 2.174zm-21.504-38.791 4.602 34.177a.72.72 0 0 0 .703.614h14.016l-3.044-34.791zm132.057-11.786h-20.335a1.999 1.999 0 0 1-1.993-2.174l3.394-38.792a2 2 0 0 1 1.992-1.826h22.164a2 2 0 0 1 1.982 2.267l-5.223 38.792a1.998 1.998 0 0 1-1.981 1.733zm-18.152-4h16.403l4.685-34.792H148.06zm-14.016 4h-29.595a2 2 0 0 1-2-2V61.679a2 2 0 0 1 2-2h32.989a1.999 1.999 0 0 1 1.993 2.174l-3.394 38.792a2 2 0 0 1-1.993 1.826zm-27.595-4h25.763l3.043-34.792h-28.806zm-13.786 4H60.023a1.999 1.999 0 0 1-1.992-1.826l-3.394-38.792a1.997 1.997 0 0 1 1.993-2.174h32.99a2 2 0 0 1 2 2v38.792a2 2 0 0 1-2 2zm-27.764-4H87.62V63.679H58.812zm-13.665 4H27.238a2 2 0 0 1-1.982-1.733l-5.223-38.792a1.998 1.998 0 0 1 1.982-2.267h22.782c1.037 0 1.902.792 1.992 1.826l3.394 38.792a1.997 1.997 0 0 1-1.992 2.174zm-19.205-4h17.022l-3.044-34.792H24.302z" opacity="1" data-original="#3762cc"></path><path fill="#3762CC" d="M161.333 193.576H28.896c-4.352 0-7.893-3.541-7.893-7.893s3.541-7.893 7.893-7.893h132.437c3.257 0 5.906-2.906 5.906-6.478s-2.649-6.478-5.906-6.478h-7.341a2 2 0 0 1 0-4c5.564 0 10.506-3.755 12.017-9.131a2 2 0 0 1 2.616-1.336c8.614 3.168 14.401 11.585 14.401 20.945-.001 12.277-9.732 22.264-21.693 22.264zM28.896 181.79c-2.146 0-3.893 1.747-3.893 3.893s1.747 3.893 3.893 3.893h132.437c9.756 0 17.693-8.193 17.693-18.264 0-6.997-3.918-13.346-9.932-16.386a16.57 16.57 0 0 1-4.911 6.351c4.077 1.298 7.056 5.306 7.056 10.036 0 5.777-4.444 10.478-9.906 10.478H28.896z" opacity="1" data-original="#3762cc"></path><circle cx="179.461" cy="106.436" r="39.085" fill="#6BDDDD" opacity="1" data-original="#6bdddd"></circle><path fill="#FFEA92" d="M179.461 135.521c-16.038 0-29.085-13.048-29.085-29.085s13.047-29.085 29.085-29.085 29.085 13.048 29.085 29.085-13.047 29.085-29.085 29.085z" opacity="1" data-original="#ffea92"></path><path fill="#3762CC" d="M179.461 147.521c-22.654 0-41.085-18.431-41.085-41.085 0-22.655 18.431-41.085 41.085-41.085 22.655 0 41.085 18.431 41.085 41.085s-18.43 41.085-41.085 41.085zm0-78.17c-20.449 0-37.085 16.636-37.085 37.085s16.636 37.085 37.085 37.085 37.085-16.636 37.085-37.085-16.636-37.085-37.085-37.085z" opacity="1" data-original="#3762cc"></path><path fill="#F9A7A7" d="M196.649 112.563h-34.375a2 2 0 0 1-2-2v-8.375a2 2 0 0 1 2-2h34.375a2 2 0 0 1 2 2v8.375a2 2 0 0 1-2 2z" opacity="1" data-original="#f9a7a7"></path></g></svg>