<svg width="180" height="131" viewBox="0 0 180 131" fill="none" xmlns="http://www.w3.org/2000/svg">
    <style>
        path {
            fill: #454692
        }

        @media (prefers-color-scheme: dark) {
            path {
                fill: #fff
            }
        }

        rect {
            fill: #fff
        }

        @media (prefers-color-scheme: dark) {
            rect {
                fill: #000
            }
        }
    </style>
<rect y="0.646362" width="180" height="130.354" />
<path d="M45.3277 9.03229C13.8203 19.8215 -3.42246 53.4403 7.07997 84.2444C11.3123 96.9101 17.7392 105.979 28.0848 113.798C43.4466 125.369 65.7055 129.121 82.9483 123.18C90.3157 120.521 91.0995 120.521 100.191 123.336C127.78 132.092 158.817 118.645 171.827 92.0627C176.686 82.368 177 80.4916 177 65.9496C177 52.1893 176.53 49.2184 172.768 41.2437C166.811 28.5781 152.547 14.9742 140.633 10.4396C127.78 5.43586 112.104 4.65403 100.191 8.40682C91.0995 11.2214 90.4725 11.2214 82.1646 8.71955C70.5649 4.96677 56.7706 5.12313 45.3277 9.03229ZM86.7104 25.2944C91.2562 27.7962 96.7426 32.0181 98.9371 34.6763C105.05 41.7128 110.694 55.0039 110.067 60.7895C109.596 65.6368 109.44 65.7932 101.445 65.7932C97.0561 65.9496 92.9805 66.4187 92.5102 66.8878C91.5697 67.826 115.71 91.75 117.747 91.75C119.158 91.75 143.298 67.9823 143.298 66.575C143.298 66.1059 139.379 65.6368 134.363 65.7932L125.585 65.9496L123.547 56.0985C121.039 44.2147 116.337 33.8945 109.91 26.7017C104.267 20.1343 105.991 19.0397 121.039 20.1343C133.893 21.0725 141.887 24.6689 150.509 33.269C163.99 46.5602 168.065 67.826 160.541 84.5571C156.465 93.6264 146.59 103.947 137.812 108.168C128.563 112.703 105.834 112.547 96.8993 107.856C84.2024 101.132 73.5432 86.7463 71.8189 74.0806L70.7216 66.7314H80.4403C85.6131 66.7314 90.0022 66.2623 90.0022 65.6368C90.0022 63.9168 66.019 40.1491 64.2947 40.1491C63.511 40.1491 57.0841 45.9347 50.187 52.9712L37.49 65.9496L47.3654 66.4187C52.695 66.7314 57.0841 67.0441 57.0841 67.3569C57.0841 67.5132 57.8679 71.8915 58.8084 76.8952C60.6894 87.3717 64.765 96.2846 71.3486 104.103C73.6999 107.074 75.2674 110.201 74.7972 110.983C74.3269 111.765 68.5271 112.078 61.7867 111.765C52.2248 111.139 48.1492 110.201 42.0358 106.605C21.3445 94.7209 12.7231 71.266 21.031 49.2184C25.4201 37.3346 36.3927 26.5453 48.7762 22.0107C58.6516 18.2579 76.6782 19.9779 86.7104 25.2944Z" />
</svg>
